<?xml version="1.0" encoding="iso-8859-1"?>
<!-- Generator: Adobe Illustrator 19.0.0, SVG Export Plug-In . SVG Version: 6.00 Build 0)  -->
<svg version="1.1" id="Layer_1" xmlns="http://www.w3.org/2000/svg" xmlns:xlink="http://www.w3.org/1999/xlink" x="0px" y="0px"
	 viewBox="0 0 495 495" style="enable-background:new 0 0 495 495;" xml:space="preserve">
<g>
	<rect x="247.5" style="fill:#FFB655;" width="181.59" height="80.85"/>
	<path style="fill:#FFA733;" d="M247.5,80.85v62.127h20v32.712c3.429,1.104,6.73,2.488,9.887,4.117l23.146-23.146l28.284,28.284
		l-23.146,23.146c1.629,3.157,3.013,6.459,4.117,9.887H342.5v40h-32.711c-1.104,3.429-2.488,6.73-4.117,9.887l23.146,23.146
		l-28.284,28.284l-23.146-23.146c-3.157,1.629-6.459,3.014-9.887,4.117v32.711h-20V405h150.79l30.8-324.15H247.5z"/>
	<path style="fill:#FFB655;" d="M247.5,405v-72.023h-20v-32.711c-3.429-1.104-6.73-2.488-9.887-4.117l-23.146,23.146l-28.284-28.284
		l23.146-23.146c-1.629-3.157-3.014-6.459-4.117-9.887H152.5v-40h32.711c1.104-3.429,2.488-6.73,4.117-9.887l-23.146-23.146
		l28.284-28.284l23.146,23.146c3.157-1.629,6.459-3.013,9.887-4.117v-32.712h20V80.85H65.91L96.71,405H247.5z"/>
	<rect x="65.91" style="fill:#FFC477;" width="181.59" height="80.85"/>
	<path style="fill:#FF3501;" d="M227.5,175.689c6.308-2.03,13.026-3.138,20-3.138v130.853c-6.974,0-13.692-1.108-20-3.138v32.711h40
		v-32.711c3.429-1.104,6.73-2.488,9.887-4.117l23.146,23.146l28.284-28.284l-23.146-23.146c1.629-3.157,3.014-6.459,4.117-9.887
		H342.5v-40h-32.711c-1.104-3.429-2.488-6.73-4.117-9.887l23.146-23.146l-28.284-28.284l-23.146,23.146
		c-3.157-1.629-6.459-3.013-9.887-4.117v-32.712h-40V175.689z"/>
	<path style="fill:#FFDAAA;" d="M267.5,439h-40v-34H96.705v50.872c0,21.575,17.553,39.128,39.128,39.128h223.334
		c21.575,0,39.128-17.553,39.128-39.128V405H267.5V439z"/>
	<rect x="227.5" y="405" style="fill:#FFC477;" width="40" height="34"/>
	<path style="fill:#FF5023;" d="M247.5,172.551c-6.974,0-13.692,1.108-20,3.138c-3.429,1.104-6.73,2.488-9.887,4.117l-23.146-23.146
		l-28.284,28.284l23.146,23.146c-1.629,3.157-3.013,6.459-4.117,9.887H152.5v40h32.711c1.104,3.429,2.488,6.73,4.117,9.887
		l-23.146,23.146l28.284,28.284l23.146-23.146c3.157,1.629,6.459,3.014,9.887,4.117c6.308,2.03,13.026,3.138,20,3.138V172.551z"/>
</g>
<g>
</g>
<g>
</g>
<g>
</g>
<g>
</g>
<g>
</g>
<g>
</g>
<g>
</g>
<g>
</g>
<g>
</g>
<g>
</g>
<g>
</g>
<g>
</g>
<g>
</g>
<g>
</g>
<g>
</g>
</svg>
