<?xml version="1.0" encoding="iso-8859-1"?>
<!-- Generator: Adobe Illustrator 19.0.0, SVG Export Plug-In . SVG Version: 6.00 Build 0)  -->
<svg version="1.1" id="Capa_1" xmlns="http://www.w3.org/2000/svg" xmlns:xlink="http://www.w3.org/1999/xlink" x="0px" y="0px"
	 viewBox="0 0 460 460" style="enable-background:new 0 0 460 460;" xml:space="preserve">
<g>
	<path style="fill:#D5310E;" d="M280,200h-50v30h50c10.841,0,20,9.159,20,20v160c0,10.841-9.159,20-20,20h-50v30h50
		c27.5,0,50-22.5,50-50V250C330,222.5,307.5,200,280,200z"/>
	<path style="fill:#FFD23D;" d="M230,430h50c10.841,0,20-9.159,20-20v-90c-35,0-52.5-10-70-20V430z"/>
	<path style="fill:#FFEDAD;" d="M160,280v130c0,10.841,9.159,20,20,20h50V300C212.5,290,195,280,160,280z"/>
	<path style="fill:#FFCC99;" d="M160,250v30c35,0,52.5,10,70,20v-70h-50C169.159,230,160,239.159,160,250z"/>
	<path style="fill:#FFB76E;" d="M300,320v-70c0-10.841-9.159-20-20-20h-50v70C247.5,310,265,320,300,320z"/>
	<path style="fill:#F46A1A;" d="M180,430c-10.841,0-20-9.159-20-20V250c0-10.841,9.159-20,20-20h50v-30h-50c-27.5,0-50,22.5-50,50
		v160c0,27.5,22.5,50,50,50h50v-30H180z"/>
	<rect x="230" y="140" style="fill:#96B5A5;" width="50" height="60"/>
	<polygon style="fill:#B7D6CA;" points="230,140 320,140 320,110 270,110 250,0 230,0 230,110 140,110 140,140 180,140 180,200 
		230,200 	"/>
	<polygon style="fill:#C7FFE9;" points="230,0 210,0 190,110 230,110 	"/>
</g>
<g>
</g>
<g>
</g>
<g>
</g>
<g>
</g>
<g>
</g>
<g>
</g>
<g>
</g>
<g>
</g>
<g>
</g>
<g>
</g>
<g>
</g>
<g>
</g>
<g>
</g>
<g>
</g>
<g>
</g>
</svg>
